<svg width="169" height="70" viewBox="0 0 169 70" fill="none" xmlns="http://www.w3.org/2000/svg">
<rect width="169" height="70" fill="#1C1847"/>
<path d="M58.406 28.3994C58.406 28.7002 58.2488 29.3701 57.9343 30.4092C57.6199 31.4482 57.4011 31.9678 57.2781 31.9678C56.6628 31.6943 56.0408 31.4209 55.4119 31.1475C54.7966 30.874 54.1199 30.7373 53.3816 30.7373C51.7 30.7373 50.2986 31.3594 49.1775 32.6035C48.0564 33.8477 47.4958 35.3174 47.4958 37.0127C47.4958 38.6807 48.0564 40.123 49.1775 41.3398C50.3259 42.5977 51.7273 43.2266 53.3816 43.2266C54.2976 43.2266 55.2 43.001 56.0886 42.5498C56.9773 42.0986 57.3669 41.873 57.2576 41.873C57.4353 41.873 57.6335 42.4473 57.8523 43.5957C58.0574 44.6348 58.1599 45.3525 58.1599 45.749C58.1599 46.1729 57.3601 46.5898 55.7605 47C54.4207 47.3418 53.4294 47.5127 52.7869 47.5127C49.9705 47.5127 47.5916 46.46 45.6501 44.3545C43.7498 42.3037 42.7996 39.8564 42.7996 37.0127C42.7996 34.1143 43.7292 31.6533 45.5886 29.6299C47.5027 27.5518 49.8884 26.5127 52.7458 26.5127C54.6599 26.5127 56.4099 26.998 57.9958 27.9688C58.2693 28.1328 58.406 28.2764 58.406 28.3994ZM79.5701 37.0127C79.5701 39.8701 78.6335 42.3105 76.7605 44.334C74.8464 46.4258 72.4744 47.4717 69.6443 47.4717C66.8005 47.4717 64.4216 46.4326 62.5076 44.3545C60.6345 42.3447 59.698 39.9111 59.698 37.0537C59.698 34.1963 60.6345 31.7627 62.5076 29.7529C64.4353 27.7021 66.8142 26.6768 69.6443 26.6768C72.4607 26.6768 74.8259 27.7021 76.74 29.7529C78.6267 31.749 79.5701 34.1689 79.5701 37.0127ZM75.2429 37.0537C75.2429 35.3857 74.7302 33.9639 73.7048 32.7881C72.6384 31.5439 71.2849 30.9219 69.6443 30.9219C68.0037 30.9219 66.6433 31.5371 65.5632 32.7676C64.5378 33.957 64.0251 35.3857 64.0251 37.0537C64.0251 38.6943 64.5447 40.1162 65.5837 41.3193C66.6775 42.5908 68.031 43.2266 69.6443 43.2266C71.2712 43.2266 72.6248 42.5908 73.7048 41.3193C74.7302 40.1162 75.2429 38.6943 75.2429 37.0537Z" fill="white"/>
<path d="M113.654 46.2412C113.654 46.7744 113.497 47.041 113.182 47.041C112.977 47.041 112.663 47.0205 112.239 46.9795C111.829 46.9385 111.514 46.918 111.296 46.918C111.063 46.918 110.715 46.9316 110.25 46.959C109.785 46.9863 109.436 47 109.204 47C108.917 47 108.773 46.6787 108.773 46.0361C108.773 45.4072 108.794 44.4707 108.835 43.2266C108.889 41.9688 108.917 41.0254 108.917 40.3965C108.917 36.9375 108.903 35.0098 108.876 34.6133C108.766 33.2051 108.479 32.2344 108.014 31.7012C107.481 31.127 106.531 30.8398 105.164 30.8398C104.302 30.8398 103.332 31.25 102.252 32.0703C101.131 32.9316 100.55 33.7793 100.509 34.6133C100.454 35.6797 100.427 37.6279 100.427 40.458C100.427 41.1279 100.454 42.1328 100.509 43.4727C100.563 44.8125 100.591 45.8174 100.591 46.4873C100.591 46.8564 100.468 47.041 100.221 47.041C99.9753 47.041 99.613 47.0205 99.1345 46.9795C98.6697 46.9385 98.3142 46.918 98.0681 46.918C97.8494 46.918 97.5281 46.9316 97.1042 46.959C96.6804 46.9863 96.3591 47 96.1404 47C95.8669 47 95.7302 46.8018 95.7302 46.4053C95.7302 45.749 95.7507 44.7646 95.7917 43.4521C95.8328 42.126 95.8533 41.1348 95.8533 40.4785V35.5361C95.8533 33.9912 95.6687 32.8906 95.2996 32.2344C94.78 31.3047 93.7888 30.8398 92.3259 30.8398C91.4646 30.8398 90.4392 31.2021 89.2498 31.9268C87.9373 32.7197 87.281 33.5195 87.281 34.3262V40.3145C87.281 40.998 87.2878 42.0166 87.3015 43.3701C87.3152 44.7236 87.322 45.7354 87.322 46.4053C87.322 46.8018 87.1648 47 86.8503 47H83.0359C82.7625 47 82.6257 46.8154 82.6257 46.4463C82.6257 45.3389 82.6326 43.6777 82.6462 41.4629C82.6599 39.2344 82.6667 37.5664 82.6667 36.459C82.6667 33.957 82.4001 31.4619 81.8669 28.9736C81.8259 28.7959 81.8054 28.6523 81.8054 28.543C81.8054 28.3652 81.8669 28.2627 81.99 28.2354C82.4958 28.1807 83.2341 28.0781 84.2048 27.9277C84.656 27.791 85.3328 27.6406 86.2351 27.4766L86.3992 27.4561C86.5632 27.4561 86.7136 27.9414 86.8503 28.9121C87.0007 29.8691 87.1306 30.3477 87.24 30.3477C87.24 30.3477 87.5818 30.0469 88.2654 29.4453C89.072 28.748 89.8787 28.1943 90.6853 27.7842C91.8474 27.1826 93.0095 26.8818 94.1716 26.8818C97.3162 26.8818 99.3191 28.167 100.18 30.7373C101.028 29.6436 102.081 28.7412 103.339 28.0303C104.678 27.2646 106.005 26.8818 107.317 26.8818C109.846 26.8818 111.596 27.6201 112.567 29.0967C113.264 30.1904 113.613 31.9199 113.613 34.2852C113.613 34.7363 113.599 35.4336 113.572 36.377C113.545 37.3203 113.531 38.0176 113.531 38.4688C113.531 39.3301 113.552 40.6289 113.593 42.3652C113.634 44.0879 113.654 45.3799 113.654 46.2412ZM137.648 28.4404C137.648 28.4951 137.628 28.6182 137.587 28.8096C137.053 31.9404 136.787 34.6406 136.787 36.9102C136.787 37.0469 136.958 40.1162 137.3 46.1182L137.32 46.4053C137.334 46.8018 137.149 47 136.766 47C136.397 47 135.83 47.041 135.064 47.123C134.312 47.2188 133.752 47.2666 133.383 47.2666C133.123 47.2666 132.925 46.7881 132.788 45.8311C132.651 44.874 132.521 44.3955 132.398 44.3955C132.316 44.3955 131.947 44.6621 131.291 45.1953C130.484 45.8516 129.732 46.3506 129.035 46.6924C127.955 47.2393 126.875 47.5127 125.795 47.5127C123.142 47.5127 120.907 46.4531 119.089 44.334C117.366 42.3105 116.505 39.9521 116.505 37.2588C116.505 34.2236 117.373 31.7148 119.109 29.7324C120.927 27.668 123.32 26.6357 126.287 26.6357C128.379 26.6357 130.204 27.3604 131.762 28.8096C131.995 29.083 132.357 29.4795 132.849 29.999C132.89 30.04 132.931 30.0605 132.972 30.0605C133.054 30.0605 133.171 29.6299 133.321 28.7686C133.471 27.9072 133.663 27.4766 133.895 27.4766C134.264 27.4766 134.955 27.5791 135.967 27.7842C137.088 28.0303 137.648 28.249 137.648 28.4404ZM132.419 37.0127C132.419 35.3311 131.92 33.8887 130.922 32.6855C129.869 31.3867 128.522 30.7373 126.882 30.7373C125.241 30.7373 123.874 31.3799 122.78 32.665C121.727 33.8955 121.201 35.3447 121.201 37.0127C121.201 38.667 121.727 40.1025 122.78 41.3193C123.874 42.5908 125.241 43.2266 126.882 43.2266C128.481 43.2266 129.821 42.5771 130.901 41.2783C131.913 40.0615 132.419 38.6396 132.419 37.0127ZM152.742 27.7432C152.742 29.2471 152.639 30.6143 152.434 31.8447C152.393 32.1592 152.257 32.3164 152.024 32.3164C151.737 32.3164 151.3 32.2891 150.712 32.2344C150.137 32.166 149.7 32.1318 149.399 32.1318C147.677 32.1318 146.576 32.6172 146.097 33.5879C145.81 34.1758 145.667 35.3994 145.667 37.2588V39.5146C145.667 40.2803 145.694 41.4424 145.749 43.001C145.817 44.5596 145.851 45.7217 145.851 46.4873C145.851 46.8564 145.694 47.041 145.38 47.041C144.956 47.041 144.313 47.0342 143.452 47.0205C142.591 47.0068 141.948 47 141.524 47C141.21 47 141.052 46.8291 141.052 46.4873C141.052 45.3799 141.066 43.7119 141.094 41.4834C141.135 39.2549 141.155 37.5801 141.155 36.459C141.155 33.082 140.841 30.3682 140.212 28.3174C140.184 28.208 140.171 28.126 140.171 28.0713C140.171 27.9072 140.26 27.791 140.437 27.7227C140.943 27.668 141.654 27.5859 142.57 27.4766C144.047 27.2031 144.73 27.0664 144.621 27.0664C144.84 27.0664 144.983 27.4697 145.052 28.2764C145.12 29.083 145.243 29.4863 145.421 29.4863C145.448 29.4863 145.482 29.4727 145.523 29.4453C146.084 29.0898 146.644 28.7344 147.205 28.3789C147.82 28.0098 148.449 27.7363 149.092 27.5586C149.625 27.3945 150.308 27.3125 151.142 27.3125C152.209 27.3125 152.742 27.4561 152.742 27.7432ZM166.421 43.2266C166.421 43.5273 166.393 43.9375 166.339 44.457C166.27 45.0996 166.229 45.5166 166.216 45.708C166.202 45.9541 166.181 46.1045 166.154 46.1592C166.099 46.2549 165.969 46.3506 165.764 46.4463C164.643 46.9795 162.88 47.2461 160.473 47.2461C157.274 47.2461 155.675 45.7969 155.675 42.8984C155.675 41.7363 155.702 39.9932 155.757 37.6689C155.811 35.3311 155.839 33.5811 155.839 32.4189C155.839 31.8584 155.558 31.5576 154.998 31.5166C154.492 31.5166 153.993 31.5098 153.501 31.4961C153.214 31.4277 153.07 30.8672 153.07 29.8145C153.07 29.418 153.097 29.001 153.152 28.5635C153.193 28.2354 153.412 28.0371 153.808 27.9688C154.15 27.9688 154.485 27.9619 154.813 27.9482C155.442 27.9209 155.757 27.6406 155.757 27.1074C155.757 26.5605 155.736 25.7266 155.695 24.6055C155.668 23.4844 155.654 22.6436 155.654 22.083C155.654 21.085 155.845 20.5859 156.228 20.5859C156.351 20.5859 157.636 20.7979 160.084 21.2217C160.398 21.2627 160.555 21.4131 160.555 21.6729C160.555 22.2744 160.508 23.1768 160.412 24.3799C160.33 25.583 160.289 26.4854 160.289 27.0869C160.289 27.4834 160.473 27.6816 160.843 27.6816H165.764C165.997 27.6816 166.113 27.7637 166.113 27.9277C166.113 28.0918 166.086 28.3584 166.031 28.7275C165.99 29.083 165.969 29.3496 165.969 29.5273C165.969 29.7324 165.976 30.0469 165.99 30.4707C166.004 30.8945 166.01 31.209 166.01 31.4141C166.01 31.6738 165.819 31.8037 165.436 31.8037C164.889 31.8037 164.062 31.7695 162.955 31.7012C161.847 31.6191 161.02 31.5781 160.473 31.5781C160.364 31.5781 160.282 31.9678 160.227 32.7471C160.159 33.7178 160.125 35.0781 160.125 36.8281V39.8838C160.125 41.0596 160.234 41.8799 160.453 42.3447C160.781 43.0557 161.458 43.4111 162.483 43.4111C162.907 43.4111 163.529 43.3223 164.349 43.1445C165.17 42.9531 165.778 42.8574 166.175 42.8574C166.339 42.8574 166.421 42.9805 166.421 43.2266Z" fill="#00AB7A"/>
<path d="M19.1871 55.3742C29.7839 55.3742 38.3742 46.7839 38.3742 36.1871C38.3742 25.5904 29.7839 17 19.1871 17C8.59037 17 0 25.5904 0 36.1871C0 46.7839 8.59037 55.3742 19.1871 55.3742Z" fill="#00AB7A"/>
<path d="M8.63245 30.1507V46.2032H13.8364V30.1507H8.63245ZM12.0976 44.3298H10.3712V32.0486H12.0976V44.3298Z" fill="#1C1847"/>
<path d="M16.4564 35.8811V46.191H21.6726V35.8811H16.4564ZM19.9216 44.3298H18.1951V37.7912H19.9216V44.3298Z" fill="#1C1847"/>
<path d="M24.5256 24.9712V46.1909H29.7295V24.9712H24.5256ZM27.9908 44.3297H26.2644V26.8813H27.9908V44.3297Z" fill="#1C1847"/>
</svg>
